<?xml version="1.0" standalone="no"?>
<!DOCTYPE svg PUBLIC "-//W3C//DTD SVG 20010904//EN"
 "http://www.w3.org/TR/2001/REC-SVG-20010904/DTD/svg10.dtd">
<svg version="1.0" xmlns="http://www.w3.org/2000/svg"
 width="16.000000pt" height="16.000000pt" viewBox="0 0 16.000000 16.000000"
 preserveAspectRatio="xMidYMid meet">
<metadata>
Created by potrace 1.11, written by Peter Selinger 2001-2013
</metadata>
<g transform="translate(0.000000,16.000000) scale(0.002000,-0.002000)"
fill="#000000" stroke="none">
<path d="M1 5183 c0 -2447 2 -2811 14 -2766 22 79 51 131 109 188 84 84 88 85
528 85 l378 0 0 23 c0 12 -5 51 -10 87 -14 95 -37 392 -52 655 -18 324 -18
3064 0 3385 35 626 79 939 147 1055 25 43 72 83 114 95 14 5 -256 9 -601 9
l-628 1 1 -2817z"/>
<path d="M6768 7989 c43 -13 98 -68 123 -123 56 -128 95 -425 130 -1006 16
-261 24 -2729 10 -3130 -13 -361 -34 -688 -56 -883 -8 -71 -15 -135 -15 -143
0 -12 61 -14 383 -14 444 0 446 0 532 -84 58 -57 88 -109 110 -189 12 -45 14
319 14 2766 l1 2817 -632 -1 c-423 -1 -622 -4 -600 -10z"/>
<path d="M1367 7603 c-7 -11 -34 -233 -47 -378 -41 -476 -53 -1070 -47 -2360
3 -610 10 -1204 16 -1320 14 -275 39 -583 57 -719 8 -61 14 -113 14 -118 0 -4
1185 -8 2634 -8 l2633 0 16 123 c62 473 81 1145 74 2622 -5 1053 -11 1298 -43
1710 -14 191 -39 416 -49 443 -3 9 -538 12 -2629 12 -1444 0 -2627 -3 -2629
-7z m4665 -403 c96 -27 191 -126 230 -240 l23 -65 0 -1595 c0 -1537 -1 -1597
-19 -1650 -38 -111 -96 -183 -188 -232 l-43 -23 -2065 0 -2065 0 -48 24 c-94
49 -161 138 -192 258 -23 86 -23 3160 0 3246 36 139 126 241 245 278 40 12
4078 11 4122 -1z m293 -4150 l0 -135 -212 -3 -213 -2 0 140 0 140 213 -2 212
-3 0 -135z"/>
<path d="M1975 6798 c-3 -7 -4 -686 -3 -1508 l3 -1495 1993 -3 1992 -2 0 1510
0 1510 -1990 0 c-1583 0 -1992 -3 -1995 -12z m465 -337 l185 -68 0 -38 0 -38
-185 -68 c-102 -38 -186 -69 -187 -69 -2 0 -3 18 -3 39 l0 39 141 48 140 47
-48 19 c-26 10 -90 32 -140 49 l-93 31 0 39 c0 21 1 39 3 39 1 0 85 -31 187
-69z"/>
<path d="M322 1343 l3 -948 3675 0 3675 0 3 948 2 947 -3680 0 -3680 0 2 -947z
m7016 427 c1 -63 0 -125 -3 -138 l-5 -22 -208 2 -207 3 -3 138 -3 137 213 -2
213 -3 3 -115z m-4998 -30 l0 -140 -810 0 -810 0 0 140 0 140 810 0 810 0 0
-140z"/>
</g>
</svg>
